<svg width="21" height="20" viewBox="0 0 21 20" fill="none" xmlns="http://www.w3.org/2000/svg">
<path d="M10.7498 1.66663C9.65549 1.66663 8.57185 1.88217 7.56081 2.30096C6.54976 2.71975 5.6311 3.33358 4.85728 4.1074C3.29448 5.67021 2.4165 7.78982 2.4165 9.99996C2.4165 13.6833 4.80817 16.8083 8.1165 17.9166C8.53317 17.9833 8.6665 17.725 8.6665 17.5V16.0916C6.35817 16.5916 5.8665 14.975 5.8665 14.975C5.48317 14.0083 4.9415 13.75 4.9415 13.75C4.18317 13.2333 4.99984 13.25 4.99984 13.25C5.83317 13.3083 6.27484 14.1083 6.27484 14.1083C6.99984 15.375 8.22484 15 8.69984 14.8C8.77484 14.2583 8.9915 13.8916 9.22484 13.6833C7.37484 13.475 5.43317 12.7583 5.43317 9.58329C5.43317 8.65829 5.74984 7.91663 6.2915 7.32496C6.20817 7.11663 5.9165 6.24996 6.37484 5.12496C6.37484 5.12496 7.07484 4.89996 8.6665 5.97496C9.32484 5.79163 10.0415 5.69996 10.7498 5.69996C11.4582 5.69996 12.1748 5.79163 12.8332 5.97496C14.4248 4.89996 15.1248 5.12496 15.1248 5.12496C15.5832 6.24996 15.2915 7.11663 15.2082 7.32496C15.7498 7.91663 16.0665 8.65829 16.0665 9.58329C16.0665 12.7666 14.1165 13.4666 12.2582 13.675C12.5582 13.9333 12.8332 14.4416 12.8332 15.2166V17.5C12.8332 17.725 12.9665 17.9916 13.3915 17.9166C16.6998 16.8 19.0832 13.6833 19.0832 9.99996C19.0832 8.90561 18.8676 7.82198 18.4488 6.81093C18.03 5.79988 17.4162 4.88122 16.6424 4.1074C15.8686 3.33358 14.9499 2.71975 13.9389 2.30096C12.9278 1.88217 11.8442 1.66663 10.7498 1.66663Z" fill="black"/>
</svg>
