<svg width="21" height="20" viewBox="0 0 21 20" fill="none" xmlns="http://www.w3.org/2000/svg">
<path d="M18.4223 8.36788H17.7511V8.33329H10.2511V11.6666H14.9606C14.2736 13.607 12.4273 15 10.2511 15C7.48981 15 5.25106 12.7612 5.25106 9.99996C5.25106 7.23871 7.48981 4.99996 10.2511 4.99996C11.5256 4.99996 12.6852 5.48079 13.5681 6.26621L15.9252 3.90913C14.4369 2.52204 12.4461 1.66663 10.2511 1.66663C5.64897 1.66663 1.91772 5.39788 1.91772 9.99996C1.91772 14.602 5.64897 18.3333 10.2511 18.3333C14.8531 18.3333 18.5844 14.602 18.5844 9.99996C18.5844 9.44121 18.5269 8.89579 18.4223 8.36788Z" fill="#FFC107"/>
<path d="M2.87793 6.12121L5.61585 8.12913C6.35668 6.29496 8.15085 4.99996 10.2504 4.99996C11.525 4.99996 12.6846 5.48079 13.5675 6.26621L15.9246 3.90913C14.4363 2.52204 12.4454 1.66663 10.2504 1.66663C7.0496 1.66663 4.27376 3.47371 2.87793 6.12121Z" fill="#FF3D00"/>
<path d="M10.2503 18.3333C12.4028 18.3333 14.3586 17.5095 15.8374 16.1699L13.2582 13.9874C12.3934 14.6451 11.3367 15.0008 10.2503 14.9999C8.08279 14.9999 6.24238 13.6178 5.54904 11.6891L2.83154 13.7828C4.21071 16.4816 7.01154 18.3333 10.2503 18.3333Z" fill="#4CAF50"/>
<path d="M18.421 8.36771H17.7498V8.33313H10.2498V11.6665H14.9593C14.6307 12.59 14.0387 13.397 13.2564 13.9877L13.2577 13.9869L15.8368 16.1694C15.6543 16.3352 18.5831 14.1665 18.5831 9.9998C18.5831 9.44105 18.5256 8.89563 18.421 8.36771Z" fill="#1976D2"/>
</svg>
