<svg width="360" height="128" viewBox="0 0 360 128" fill="none" xmlns="http://www.w3.org/2000/svg">
<path fill-rule="evenodd" clip-rule="evenodd" d="M53 106C82.2711 106 106 82.2711 106 53C106 23.7289 82.2711 0 53 0C23.7289 0 0 23.7289 0 53C0 82.2711 23.7289 106 53 106ZM52.5 89C72.6584 89 89 72.6584 89 52.5C89 32.3416 72.6584 16 52.5 16C32.3416 16 16 32.3416 16 52.5C16 72.6584 32.3416 89 52.5 89Z" fill="url(#paint0_linear_14_166)"/>
<rect x="53" y="72.5364" width="19.5779" height="71.7855" rx="9.78893" transform="rotate(-39.8165 53 72.5364)" fill="url(#paint1_linear_14_166)"/>
<path d="M346.275 99V24.531H359.768V99H346.275Z" fill="#001924"/>
<path d="M314.343 100.03C309.125 100.03 304.49 98.9314 300.438 96.734C296.387 94.468 293.16 91.378 290.756 87.464C288.422 83.55 287.254 79.0867 287.254 74.074C287.254 69.13 288.387 64.7354 290.653 60.89C292.988 56.976 296.147 53.886 300.129 51.62C304.112 49.2854 308.541 48.118 313.416 48.118C318.223 48.118 322.446 49.2167 326.085 51.414C329.793 53.5427 332.677 56.4954 334.737 60.272C336.866 63.98 337.93 68.203 337.93 72.941C337.93 73.8337 337.862 74.7607 337.724 75.722C337.656 76.6147 337.484 77.6447 337.209 78.812L295.391 78.915V68.821L330.926 68.718L325.467 72.941C325.33 69.9884 324.781 67.5164 323.819 65.525C322.927 63.5337 321.588 62.023 319.802 60.993C318.086 59.8944 315.957 59.345 313.416 59.345C310.738 59.345 308.404 59.963 306.412 61.199C304.421 62.3664 302.876 64.0487 301.777 66.246C300.747 68.3747 300.232 70.9154 300.232 73.868C300.232 76.8894 300.782 79.533 301.88 81.799C303.048 83.9964 304.696 85.713 306.824 86.949C308.953 88.1164 311.425 88.7 314.24 88.7C316.781 88.7 319.081 88.288 321.141 87.464C323.201 86.5714 324.987 85.2667 326.497 83.55L334.428 91.481C332.025 94.2964 329.072 96.425 325.57 97.867C322.137 99.309 318.395 100.03 314.343 100.03Z" fill="#001924"/>
<path d="M269.05 99L255.969 78.812L253.188 76.752L233.824 49.251H249.789L261.84 67.482L264.415 69.439L284.912 99H269.05ZM232.794 99L253.085 70.572L260.81 79.739L248.038 99H232.794ZM264.93 76.649L256.999 67.585L268.844 49.251H283.985L264.93 76.649Z" fill="#001924"/>
<path d="M207.32 100.03C202.101 100.03 197.466 98.9314 193.415 96.734C189.364 94.468 186.136 91.378 183.733 87.464C181.398 83.55 180.231 79.0867 180.231 74.074C180.231 69.13 181.364 64.7354 183.63 60.89C185.965 56.976 189.123 53.886 193.106 51.62C197.089 49.2854 201.518 48.118 206.393 48.118C211.2 48.118 215.423 49.2167 219.062 51.414C222.77 53.5427 225.654 56.4954 227.714 60.272C229.843 63.98 230.907 68.203 230.907 72.941C230.907 73.8337 230.838 74.7607 230.701 75.722C230.632 76.6147 230.461 77.6447 230.186 78.812L188.368 78.915V68.821L223.903 68.718L218.444 72.941C218.307 69.9884 217.757 67.5164 216.796 65.525C215.903 63.5337 214.564 62.023 212.779 60.993C211.062 59.8944 208.934 59.345 206.393 59.345C203.715 59.345 201.38 59.963 199.389 61.199C197.398 62.3664 195.853 64.0487 194.754 66.246C193.724 68.3747 193.209 70.9154 193.209 73.868C193.209 76.8894 193.758 79.533 194.857 81.799C196.024 83.9964 197.672 85.713 199.801 86.949C201.93 88.1164 204.402 88.7 207.217 88.7C209.758 88.7 212.058 88.288 214.118 87.464C216.178 86.5714 217.963 85.2667 219.474 83.55L227.405 91.481C225.002 94.2964 222.049 96.425 218.547 97.867C215.114 99.309 211.371 100.03 207.32 100.03Z" fill="#001924"/>
<path d="M150.578 100.03C147.007 100.03 143.78 99.2747 140.896 97.764C138.012 96.2533 135.712 94.1934 133.995 91.584C132.278 88.9747 131.351 86.0563 131.214 82.829V65.113C131.351 61.8857 132.278 59.0017 133.995 56.461C135.78 53.8517 138.115 51.826 140.999 50.384C143.883 48.942 147.076 48.221 150.578 48.221C155.179 48.221 159.299 49.354 162.938 51.62C166.577 53.886 169.427 56.976 171.487 60.89C173.616 64.804 174.68 69.233 174.68 74.177C174.68 79.0523 173.616 83.447 171.487 87.361C169.427 91.275 166.577 94.365 162.938 96.631C159.299 98.897 155.179 100.03 150.578 100.03ZM148.312 87.567C150.784 87.567 152.947 87.0177 154.801 85.919C156.724 84.7517 158.2 83.1723 159.23 81.181C160.329 79.121 160.878 76.752 160.878 74.074C160.878 71.4647 160.329 69.1643 159.23 67.173C158.2 65.113 156.724 63.5337 154.801 62.435C152.878 61.2677 150.681 60.684 148.209 60.684C145.737 60.684 143.54 61.2677 141.617 62.435C139.763 63.5337 138.287 65.113 137.188 67.173C136.158 69.1643 135.643 71.4647 135.643 74.074C135.643 76.752 136.158 79.121 137.188 81.181C138.287 83.1723 139.797 84.7517 141.72 85.919C143.643 87.0177 145.84 87.567 148.312 87.567ZM122.974 99V24.531H136.467V61.508L134.201 73.456L136.364 85.61V99H122.974Z" fill="#001924"/>
<defs>
<linearGradient id="paint0_linear_14_166" x1="3.71916" y1="-4.56629" x2="76.0112" y2="104.574" gradientUnits="userSpaceOnUse">
<stop stop-color="#6C12FF"/>
<stop offset="1" stop-color="#FDC448"/>
</linearGradient>
<linearGradient id="paint1_linear_14_166" x1="53.6869" y1="69.444" x2="91.1248" y2="84.8587" gradientUnits="userSpaceOnUse">
<stop stop-color="#6C12FF"/>
<stop offset="1" stop-color="#FDC448"/>
</linearGradient>
</defs>
</svg>
