<svg width="360" height="128" viewBox="0 0 360 128" fill="none" xmlns="http://www.w3.org/2000/svg">
<path fill-rule="evenodd" clip-rule="evenodd" d="M53 106C82.2711 106 106 82.2711 106 53C106 23.7289 82.2711 0 53 0C23.7289 0 0 23.7289 0 53C0 82.2711 23.7289 106 53 106ZM52.5 89C72.6584 89 89 72.6584 89 52.5C89 32.3416 72.6584 16 52.5 16C32.3416 16 16 32.3416 16 52.5C16 72.6584 32.3416 89 52.5 89Z" fill="#FDC448"/>
<rect x="53" y="72.5364" width="19.5779" height="71.7855" rx="9.78893" transform="rotate(-39.8165 53 72.5364)" fill="#FDC448"/>
<path d="M346.275 99V24.531H359.768V99H346.275Z" fill="url(#paint0_linear_14_182)"/>
<path d="M314.343 100.03C309.124 100.03 304.489 98.9313 300.438 96.7339C296.387 94.4679 293.159 91.3779 290.756 87.4639C288.421 83.5499 287.254 79.0866 287.254 74.0739C287.254 69.1299 288.387 64.7353 290.653 60.8899C292.988 56.9759 296.146 53.8859 300.129 51.6199C304.112 49.2853 308.541 48.1179 313.416 48.1179C318.223 48.1179 322.446 49.2166 326.085 51.4139C329.793 53.5426 332.677 56.4952 334.737 60.2719C336.866 63.9799 337.93 68.2029 337.93 72.9409C337.93 73.8336 337.861 74.7606 337.724 75.7219C337.656 76.6146 337.484 77.6446 337.209 78.8119L295.391 78.9149V68.8209L330.926 68.7179L325.467 72.9409C325.33 69.9882 324.78 67.5163 323.819 65.5249C322.926 63.5336 321.587 62.0229 319.802 60.9929C318.085 59.8942 315.957 59.3449 313.416 59.3449C310.738 59.3449 308.403 59.9629 306.412 61.1989C304.421 62.3663 302.876 64.0486 301.777 66.2459C300.747 68.3746 300.232 70.9153 300.232 73.8679C300.232 76.8892 300.781 79.5329 301.88 81.7989C303.047 83.9963 304.695 85.7129 306.824 86.9489C308.953 88.1162 311.425 88.6999 314.24 88.6999C316.781 88.6999 319.081 88.2879 321.141 87.4639C323.201 86.5713 324.986 85.2666 326.497 83.5499L334.428 91.4809C332.025 94.2963 329.072 96.4249 325.57 97.8669C322.137 99.3089 318.394 100.03 314.343 100.03Z" fill="url(#paint1_linear_14_182)"/>
<path d="M269.05 99L255.969 78.812L253.188 76.752L233.824 49.251H249.789L261.84 67.482L264.415 69.439L284.912 99H269.05ZM232.794 99L253.085 70.572L260.81 79.739L248.038 99H232.794ZM264.93 76.649L256.999 67.585L268.844 49.251H283.985L264.93 76.649Z" fill="url(#paint2_linear_14_182)"/>
<path d="M207.32 100.03C202.101 100.03 197.466 98.9313 193.415 96.7339C189.363 94.4679 186.136 91.3779 183.733 87.4639C181.398 83.5499 180.231 79.0866 180.231 74.0739C180.231 69.1299 181.364 64.7353 183.63 60.8899C185.964 56.9759 189.123 53.8859 193.106 51.6199C197.088 49.2853 201.517 48.1179 206.393 48.1179C211.199 48.1179 215.422 49.2166 219.062 51.4139C222.77 53.5426 225.654 56.4952 227.714 60.2719C229.842 63.9799 230.907 68.2029 230.907 72.9409C230.907 73.8336 230.838 74.7606 230.701 75.7219C230.632 76.6146 230.46 77.6446 230.186 78.8119L188.368 78.9149V68.8209L223.903 68.7179L218.444 72.9409C218.306 69.9882 217.757 67.5163 216.796 65.5249C215.903 63.5336 214.564 62.0229 212.779 60.9929C211.062 59.8942 208.933 59.3449 206.393 59.3449C203.715 59.3449 201.38 59.9629 199.389 61.1989C197.397 62.3663 195.852 64.0486 194.754 66.2459C193.724 68.3746 193.209 70.9153 193.209 73.8679C193.209 76.8892 193.758 79.5329 194.857 81.7989C196.024 83.9963 197.672 85.7129 199.801 86.9489C201.929 88.1162 204.401 88.6999 207.217 88.6999C209.757 88.6999 212.058 88.2879 214.118 87.4639C216.178 86.5713 217.963 85.2666 219.474 83.5499L227.405 91.4809C225.001 94.2963 222.049 96.4249 218.547 97.8669C215.113 99.3089 211.371 100.03 207.32 100.03Z" fill="url(#paint3_linear_14_182)"/>
<path d="M150.578 100.03C147.007 100.03 143.78 99.2747 140.896 97.764C138.012 96.2533 135.712 94.1934 133.995 91.584C132.278 88.9747 131.351 86.0563 131.214 82.829V65.113C131.351 61.8857 132.278 59.0017 133.995 56.461C135.78 53.8517 138.115 51.826 140.999 50.384C143.883 48.942 147.076 48.221 150.578 48.221C155.179 48.221 159.299 49.354 162.938 51.62C166.577 53.886 169.427 56.976 171.487 60.89C173.616 64.804 174.68 69.233 174.68 74.177C174.68 79.0523 173.616 83.447 171.487 87.361C169.427 91.275 166.577 94.365 162.938 96.631C159.299 98.897 155.179 100.03 150.578 100.03ZM148.312 87.567C150.784 87.567 152.947 87.0177 154.801 85.919C156.724 84.7517 158.2 83.1723 159.23 81.181C160.329 79.121 160.878 76.752 160.878 74.074C160.878 71.4647 160.329 69.1643 159.23 67.173C158.2 65.113 156.724 63.5337 154.801 62.435C152.878 61.2677 150.681 60.684 148.209 60.684C145.737 60.684 143.54 61.2677 141.617 62.435C139.763 63.5337 138.287 65.113 137.188 67.173C136.158 69.1643 135.643 71.4647 135.643 74.074C135.643 76.752 136.158 79.121 137.188 81.181C138.287 83.1723 139.797 84.7517 141.72 85.919C143.643 87.0177 145.84 87.567 148.312 87.567ZM122.974 99V24.531H136.467V61.508L134.201 73.456L136.364 85.61V99H122.974Z" fill="url(#paint4_linear_14_182)"/>
<defs>
<linearGradient id="paint0_linear_14_182" x1="164.267" y1="69.1361" x2="389.279" y2="-14.2483" gradientUnits="userSpaceOnUse">
<stop stop-color="white"/>
<stop offset="1" stop-color="#3827C8"/>
</linearGradient>
<linearGradient id="paint1_linear_14_182" x1="164.267" y1="69.136" x2="389.279" y2="-14.2484" gradientUnits="userSpaceOnUse">
<stop stop-color="white"/>
<stop offset="1" stop-color="#3827C8"/>
</linearGradient>
<linearGradient id="paint2_linear_14_182" x1="164.267" y1="69.136" x2="389.279" y2="-14.2483" gradientUnits="userSpaceOnUse">
<stop stop-color="white"/>
<stop offset="1" stop-color="#3827C8"/>
</linearGradient>
<linearGradient id="paint3_linear_14_182" x1="164.267" y1="69.136" x2="389.279" y2="-14.2484" gradientUnits="userSpaceOnUse">
<stop stop-color="white"/>
<stop offset="1" stop-color="#3827C8"/>
</linearGradient>
<linearGradient id="paint4_linear_14_182" x1="164.267" y1="69.1361" x2="389.279" y2="-14.2483" gradientUnits="userSpaceOnUse">
<stop stop-color="white"/>
<stop offset="1" stop-color="#3827C8"/>
</linearGradient>
</defs>
</svg>
